<svg xmlns="http://www.w3.org/2000/svg" width="1200" height="200" viewBox="0 0 1200 200">
  <rect width="1200" height="200" fill="none"/>
  
  <!-- 地域のスカイライン -->
  <!-- 左側の住宅地 -->
  <path d="M0,200 L0,150 L30,150 L30,170 L60,170 L60,140 L70,130 L80,140 L80,160 L100,160 L100,130 L110,120 L120,130 L120,150 L150,150 L150,170 L180,170 L180,140 L200,140 L200,200 Z" fill="#fff" opacity="0.1"/>
  
  <!-- 中央左の住宅地と小さな歯科医院 -->
  <path d="M200,200 L200,160 L220,160 L220,140 L230,130 L240,140 L240,150 L260,150 L260,120 L270,110 L280,120 L280,150 L300,150 L300,130 L320,130 L320,150 L340,150 L340,170 L360,170 L360,140 L380,140 L380,160 L400,160 L400,200 Z" fill="#fff" opacity="0.1"/>
  
  <!-- 中央の大きな歯科医院と施設 -->
  <path d="M400,200 L400,150 L420,150 L420,100 L440,100 L440,80 L460,80 L460,100 L480,100 L480,120 L500,120 L500,90 L520,90 L520,70 L540,70 L540,90 L560,90 L560,110 L580,110 L580,130 L600,130 L600,100 L620,100 L620,130 L640,130 L640,150 L660,150 L660,120 L680,120 L680,150 L700,150 L700,170 L720,170 L720,150 L740,150 L740,170 L760,170 L760,150 L780,150 L780,170 L800,170 L800,200 Z" fill="#fff" opacity="0.1"/>
  
  <!-- 中央右の住宅地と施設 -->
  <path d="M800,200 L800,160 L820,160 L820,140 L840,140 L840,120 L850,110 L860,120 L860,140 L880,140 L880,160 L900,160 L900,130 L920,130 L920,150 L940,150 L940,170 L960,170 L960,150 L980,150 L980,170 L1000,170 L1000,200 Z" fill="#fff" opacity="0.1"/>
  
  <!-- 右側の住宅地 -->
  <path d="M1000,200 L1000,160 L1020,160 L1020,140 L1040,140 L1040,160 L1060,160 L1060,130 L1070,120 L1080,130 L1080,150 L1100,150 L1100,170 L1120,170 L1120,150 L1140,150 L1140,170 L1160,170 L1160,150 L1180,150 L1180,170 L1200,170 L1200,200 Z" fill="#fff" opacity="0.1"/>
  
  <!-- 歯科医院のシンボル -->
  <path d="M500,70 L500,90 M490,80 L510,80" stroke="#fff" stroke-width="2" opacity="0.2"/>
  <circle cx="500" cy="80" r="15" stroke="#fff" stroke-width="1" fill="none" opacity="0.2"/>
  
  <path d="M700,120 L700,140 M690,130 L710,130" stroke="#fff" stroke-width="2" opacity="0.2"/>
  <circle cx="700" cy="130" r="15" stroke="#fff" stroke-width="1" fill="none" opacity="0.2"/>
  
  <!-- 木々 -->
  <circle cx="50" cy="140" r="10" fill="#fff" opacity="0.1"/>
  <circle cx="150" cy="140" r="8" fill="#fff" opacity="0.1"/>
  <circle cx="250" cy="130" r="10" fill="#fff" opacity="0.1"/>
  <circle cx="350" cy="150" r="8" fill="#fff" opacity="0.1"/>
  <circle cx="450" cy="110" r="10" fill="#fff" opacity="0.1"/>
  <circle cx="550" cy="100" r="8" fill="#fff" opacity="0.1"/>
  <circle cx="650" cy="140" r="10" fill="#fff" opacity="0.1"/>
  <circle cx="750" cy="160" r="8" fill="#fff" opacity="0.1"/>
  <circle cx="850" cy="130" r="10" fill="#fff" opacity="0.1"/>
  <circle cx="950" cy="150" r="8" fill="#fff" opacity="0.1"/>
  <circle cx="1050" cy="140" r="10" fill="#fff" opacity="0.1"/>
  <circle cx="1150" cy="160" r="8" fill="#fff" opacity="0.1"/>
</svg> 