<svg xmlns="http://www.w3.org/2000/svg" width="1200" height="800" viewBox="0 0 1200 800">
  <defs>
    <pattern id="community-dots" patternUnits="userSpaceOnUse" width="20" height="20">
      <circle cx="10" cy="10" r="1" fill="#0088cc" opacity="0.5"/>
    </pattern>
    
    <pattern id="dental-small" patternUnits="userSpaceOnUse" width="50" height="50">
      <path d="M25,15 C25,10 27,8 30,8 C33,8 35,10 35,15 C35,20 33,25 30,25 C27,25 25,20 25,15 Z" fill="none" stroke="#0088cc" stroke-width="0.5" opacity="0.3"/>
    </pattern>
  </defs>
  
  <rect width="1200" height="800" fill="url(#community-dots)"/>
  <rect width="1200" height="800" fill="url(#dental-small)"/>
  
  <!-- 地域連携を表す線 -->
  <path d="M100,100 Q300,300 600,400 Q900,500 1100,700" stroke="#0088cc" stroke-width="1" fill="none" opacity="0.1"/>
  <path d="M100,700 Q300,500 600,400 Q900,300 1100,100" stroke="#0088cc" stroke-width="1" fill="none" opacity="0.1"/>
  <path d="M600,100 L600,700" stroke="#0088cc" stroke-width="1" stroke-dasharray="5,10" opacity="0.1"/>
  <path d="M100,400 L1100,400" stroke="#0088cc" stroke-width="1" stroke-dasharray="5,10" opacity="0.1"/>
  
  <!-- 中心点 - Mr.歯科事務長の拠点 -->
  <circle cx="600" cy="400" r="50" fill="#0088cc" opacity="0.05"/>
  <circle cx="600" cy="400" r="30" fill="#0088cc" opacity="0.05"/>
  <circle cx="600" cy="400" r="10" fill="#0088cc" opacity="0.1"/>
  
  <!-- 地域の拠点 -->
  <circle cx="300" cy="200" r="20" fill="#0088cc" opacity="0.05"/>
  <circle cx="900" cy="200" r="20" fill="#0088cc" opacity="0.05"/>
  <circle cx="300" cy="600" r="20" fill="#0088cc" opacity="0.05"/>
  <circle cx="900" cy="600" r="20" fill="#0088cc" opacity="0.05"/>
  
  <!-- 連結線 -->
  <path d="M600,400 L300,200" stroke="#0088cc" stroke-width="1" opacity="0.1"/>
  <path d="M600,400 L900,200" stroke="#0088cc" stroke-width="1" opacity="0.1"/>
  <path d="M600,400 L300,600" stroke="#0088cc" stroke-width="1" opacity="0.1"/>
  <path d="M600,400 L900,600" stroke="#0088cc" stroke-width="1" opacity="0.1"/>
  
  <!-- 装飾的な要素 -->
  <path d="M0,0 L1200,800" stroke="#0088cc" stroke-width="0.5" opacity="0.05"/>
  <path d="M1200,0 L0,800" stroke="#0088cc" stroke-width="0.5" opacity="0.05"/>
  <path d="M600,0 L600,800" stroke="#0088cc" stroke-width="0.5" opacity="0.05"/>
  <path d="M0,400 L1200,400" stroke="#0088cc" stroke-width="0.5" opacity="0.05"/>
</svg> 