<svg xmlns="http://www.w3.org/2000/svg" width="200" height="200" viewBox="0 0 200 200">
  <defs>
    <pattern id="dental-pattern" patternUnits="userSpaceOnUse" width="200" height="200">
      <rect width="200" height="200" fill="white"/>
      
      <!-- 歯のアイコン -->
      <path d="M30,30 C30,20 35,15 40,15 C45,15 50,20 50,30 C50,40 45,50 40,50 C35,50 30,40 30,30 Z" fill="none" stroke="#0088cc" stroke-width="1"/>
      
      <!-- 歯ブラシ -->
      <rect x="120" y="20" width="5" height="30" fill="#0088cc" opacity="0.3"/>
      <rect x="125" y="15" width="15" height="5" fill="#0088cc" opacity="0.5"/>
      <path d="M125,20 L125,25 L140,25 L140,20 Z" fill="#0088cc" opacity="0.7"/>
      <path d="M125,25 L125,30 L140,30 L140,25 Z" fill="#0088cc" opacity="0.6"/>
      <path d="M125,30 L125,35 L140,35 L140,30 Z" fill="#0088cc" opacity="0.5"/>
      <path d="M125,35 L125,40 L140,40 L140,35 Z" fill="#0088cc" opacity="0.4"/>
      <path d="M125,40 L125,45 L140,45 L140,40 Z" fill="#0088cc" opacity="0.3"/>
      
      <!-- 歯科用器具 -->
      <path d="M30,120 L50,100 L55,105 L35,125 Z" fill="#0088cc" opacity="0.2"/>
      <circle cx="40" cy="110" r="2" fill="#0088cc"/>
      
      <!-- 歯科チェア -->
      <path d="M120,100 L140,100 L145,120 L115,120 Z" fill="#0088cc" opacity="0.2"/>
      <rect x="125" y="120" width="10" height="20" fill="#0088cc" opacity="0.3"/>
      <rect x="120" y="140" width="20" height="5" fill="#0088cc" opacity="0.3"/>
      
      <!-- 歯の断面図 -->
      <ellipse cx="40" cy="170" rx="15" ry="10" fill="none" stroke="#0088cc" stroke-width="1"/>
      <path d="M30,170 L50,170" stroke="#0088cc" stroke-width="1"/>
      <path d="M40,160 L40,180" stroke="#0088cc" stroke-width="1"/>
      
      <!-- 歯科医院のシンボル -->
      <path d="M130,160 L130,180 M120,170 L140,170" stroke="#0088cc" stroke-width="2"/>
      <circle cx="130" cy="170" r="15" fill="none" stroke="#0088cc" stroke-width="1"/>
      
      <!-- 装飾的な要素 -->
      <path d="M80,40 C90,30 110,30 120,40" stroke="#0088cc" stroke-width="1" fill="none"/>
      <path d="M80,160 C90,170 110,170 120,160" stroke="#0088cc" stroke-width="1" fill="none"/>
      <path d="M40,80 C30,90 30,110 40,120" stroke="#0088cc" stroke-width="1" fill="none"/>
      <path d="M160,80 C170,90 170,110 160,120" stroke="#0088cc" stroke-width="1" fill="none"/>
    </pattern>
  </defs>
  
  <rect width="200" height="200" fill="url(#dental-pattern)"/>
</svg> 